<svg width="200" height="42" viewBox="0 0 211 44" fill="none" xmlns="http://www.w3.org/2000/svg">
										<defs>
											<style>
											.st0 {
												fill: #2dba69;
											}
											</style>
										</defs>
										<g id="Logo">
											<path class="st0" d="M15.7694 22.8158C14.1772 23.726 8.76142 26.3231 8.76142 30.0301C8.76142 34.6826 12.5859 36.8098 16.0932 36.8098C19.6005 36.8098 23.4068 34.6836 23.4068 30.0301C23.4068 26.3231 17.9615 23.7327 16.4046 22.8158C16.1696 22.6811 16.0053 22.6868 15.7704 22.8158H15.7694ZM16.139 0.21582C26.108 0.21582 31.924 6.71948 31.924 13.4275C31.924 16.6407 30.1789 19.6256 27.3593 21.6581C30.1206 24.0317 32.2822 26.5285 32.2822 30.5344C32.2822 37.3074 26.2484 43.7528 16.139 43.7528C6.02967 43.7528 0.0484824 37.8547 0.000724622 30.5344C-0.046078 26.5275 2.18039 24.0307 4.91787 21.6581C2.1164 19.6256 0.348402 16.6407 0.348402 13.4275C0.348402 6.71853 6.13474 0.21582 16.139 0.21582ZM15.8219 21.0764C16.0569 21.2111 16.2212 21.2178 16.4562 21.0764C18.0073 20.1662 23.4584 17.5691 23.4584 13.8679C23.4584 9.2153 19.6454 7.08244 16.139 7.08244C12.6327 7.08244 8.81968 9.2153 8.81968 13.8679C8.81968 17.5691 14.2306 20.1709 15.8219 21.0764Z" fill="#2DBA69"></path>
											<path class="st0" d="M95.9219 5.95472V34.5492C95.9219 34.7995 96.1244 35.002 96.3746 35.002H101.423C101.673 35.002 101.875 34.7995 101.875 34.5492V22.6566C101.875 19.4186 103.576 16.8263 106.807 16.8263C109.786 16.8263 110.666 18.856 110.666 21.8352V34.555C110.666 34.8052 110.868 35.0077 111.118 35.0077H116.205C116.455 35.0077 116.657 34.8052 116.657 34.555V20.859C116.657 18.0155 115.959 15.7594 114.492 14.0793C111.686 10.8318 106.249 10.7639 102.601 13.5215C102.302 13.7469 101.875 13.5368 101.875 13.1623V0.129224C101.875 0.014605 101.736 -0.0436596 101.655 0.0384839L96.0365 5.68155C95.9639 5.75414 95.9238 5.85252 95.9238 5.95472H95.9219Z" fill="#2DBA69"></path>
											<path class="st0" d="M90.4012 12.1358C90.2847 12.1358 90.1739 12.1816 90.0917 12.2638L87.9971 14.3527H87.9646C85.9349 12.4586 83.4658 11.4834 80.5965 11.4834C74.2046 11.4834 69.6094 16.6479 69.6094 22.7103C69.6094 29.1538 74.5217 33.8723 80.5965 33.8723C82.6721 33.8723 84.5576 33.3517 86.2272 32.3249C86.5204 32.1434 86.8977 32.3517 86.8977 32.6965C86.8977 35.8829 84.5709 37.9126 81.3845 37.9126C79.2192 37.9126 76.9574 36.988 76.2267 34.9908H70.2617C71.3993 40.4074 75.9879 43.122 81.5144 43.122C88.5272 43.122 92.8445 38.8563 92.8445 31.8435V12.5761C92.8445 12.3335 92.6477 12.1377 92.4051 12.1377H90.4012V12.1358ZM86.9751 22.6769C86.9751 26.0505 84.5452 28.4747 81.3005 28.4747C77.7588 28.4747 75.6775 25.8117 75.6775 22.6769C75.6775 19.3873 78.0367 16.8991 81.3005 16.8991C84.5643 16.8991 86.9751 19.3166 86.9751 22.6769Z" fill="#2DBA69"></path>
											<path class="st0" d="M131.134 29.7086C129.506 29.7086 127.78 28.1183 127.78 26.2892V17.3766C127.78 17.1264 127.982 16.9239 128.232 16.9239H133.733V12.1022H128.084C127.834 12.1022 127.632 11.8998 127.632 11.6495V6.40092C127.632 6.33024 127.573 6.27197 127.503 6.27197H127.149C127.115 6.27197 127.081 6.28534 127.057 6.31018L117.807 15.6124C117.783 15.6363 117.77 15.6698 117.77 15.7032V16.794C117.77 16.8647 117.828 16.9229 117.898 16.9229H121.324C121.574 16.9229 121.776 17.1254 121.776 17.3757V27.0772C121.776 31.9896 124.678 35.0461 129.642 35.0461H133.875V29.7077H131.135L131.134 29.7086Z" fill="#2DBA69"></path>
											<path class="st0" d="M179.59 11.5149C179.381 11.5149 179.199 11.6582 179.151 11.8607L178.582 14.2104V14.1913C176.592 12.3946 174.168 11.4834 171.357 11.4834C164.847 11.4834 159.679 16.2534 159.743 23.3503C159.8 29.768 164.933 35.0395 171.352 35.0423C174.082 35.0433 176.488 34.1388 178.499 32.3927L178.91 34.6459C178.949 34.8609 179.136 35.0165 179.355 35.0165H183.223C183.474 35.0165 183.676 34.8141 183.676 34.5638V11.9677C183.676 11.7174 183.474 11.5149 183.223 11.5149H179.591H179.59ZM177.851 23.2204C177.851 26.7554 175.278 29.3219 171.833 29.3219C168.388 29.3219 165.836 26.6847 165.836 23.1879C165.836 19.6911 168.609 17.0797 171.833 17.0797C175.342 17.0797 177.851 19.7751 177.851 23.2194V23.2204Z" fill="#2DBA69"></path>
											<path class="st0" d="M210.302 23.2518C210.302 16.007 204.937 11.4824 198.694 11.4824C195.927 11.4824 193.568 12.3936 191.623 14.132L190.701 11.7699C190.633 11.5961 190.466 11.4814 190.28 11.4814H187.086C186.835 11.4814 186.633 11.6839 186.633 11.9342V43.0675H192.625V34.0527C192.625 33.7022 193.005 33.4883 193.307 33.665C194.927 34.6115 196.735 35.0709 198.726 35.0709C202.016 35.0709 204.769 33.9267 206.999 31.6973C209.19 29.4546 210.302 26.6426 210.302 23.2499V23.2518ZM204.245 23.2518C204.245 27.5109 200.897 29.3725 198.195 29.3725C194.698 29.3725 192.191 26.7487 192.191 23.2518C192.191 19.755 194.763 17.1503 198.215 17.1503C201.667 17.1503 204.245 19.755 204.245 23.2518Z" fill="#2DBA69"></path>
											<path class="st0" d="M151.908 25.6624C150.925 27.95 149.2 29.3722 146.569 29.3722C143.292 29.3722 140.902 26.5736 140.902 23.2191C140.902 19.8646 143.326 17.1501 146.569 17.1501C148.877 17.1501 150.933 18.3908 151.934 20.6402H157.867C156.736 14.8099 151.985 11.5137 146.589 11.5137C140.054 11.5137 134.852 16.3219 134.852 23.2191C134.852 30.1163 139.841 35.0726 146.569 35.0726C152.38 35.0726 156.813 31.3112 157.945 25.6624H151.909H151.908Z" fill="#2DBA69"></path>
											<path class="st0" d="M66.5956 11.6245H61.3995C61.1856 11.6245 61.0117 11.7984 61.0117 12.0123V34.6018C61.0117 34.8157 61.1856 34.9896 61.3995 34.9896H66.5956C66.8095 34.9896 66.9834 34.8157 66.9834 34.6018V12.0123C66.9834 11.7984 66.8095 11.6245 66.5956 11.6245Z" fill="#2DBA69"></path>
											<path class="st0" d="M61.3794 9.25868H66.5974C66.8114 9.25868 66.9852 9.08484 66.9852 8.87088V3.71877C66.9852 3.60415 66.8467 3.54589 66.7646 3.62707L61.2887 9.03708C61.2065 9.11827 61.2639 9.25772 61.3794 9.25772V9.25868Z" fill="#2DBA69"></path>
											<path class="st0" d="M58.4598 24.9777H42.3177C42.0235 24.9777 41.8095 25.2537 41.8793 25.5403C42.5087 28.1622 44.3522 29.677 47.1622 29.677C49.0162 29.677 50.7517 28.8566 51.7202 27.3064C51.7909 27.1927 51.9151 27.1239 52.0488 27.1239H58.137C56.3986 32.1786 52.0746 35.0737 47.1231 35.0737C40.7952 35.0737 35.6641 29.7869 35.6641 23.2651C35.6641 16.7433 40.7961 11.4699 47.1231 11.4699C53.45 11.4699 58.5764 16.7566 58.5764 23.2651C58.5764 23.8468 58.5372 24.4151 58.4598 24.9777ZM51.982 20.8218C52.2981 20.8218 52.5188 20.5056 52.406 20.2105C51.5359 17.9363 49.7049 16.601 47.1938 16.601C44.6826 16.601 42.9032 17.9726 42.1333 20.2258C42.033 20.5181 42.2537 20.8218 42.5622 20.8218H51.982Z" fill="#2DBA69"></path>
										</g>
									</svg>